<mxfile host="app.diagrams.net" modified="2023-12-23T21:37:25.665Z" agent="Mozilla/5.0 (Windows NT 10.0; Win64; x64) AppleWebKit/537.36 (KHTML, like Gecko) Chrome/120.0.0.0 Safari/537.36" etag="WNveN8pJ8Ryvl1i-6IAU" version="22.1.11" type="device">
  <diagram name="Sayfa -1" id="qJiaBAA97c9TJK16Va2-">
    <mxGraphModel dx="820" dy="798" grid="1" gridSize="10" guides="1" tooltips="1" connect="1" arrows="1" fold="1" page="1" pageScale="1" pageWidth="827" pageHeight="1169" math="0" shadow="0">
      <root>
        <mxCell id="0" />
        <mxCell id="1" parent="0" />
        <mxCell id="RYjjqIkeE0hDO9lVGbM3-20" style="edgeStyle=orthogonalEdgeStyle;rounded=0;orthogonalLoop=1;jettySize=auto;html=1;exitX=0.5;exitY=1;exitDx=0;exitDy=0;entryX=0.5;entryY=0;entryDx=0;entryDy=0;" edge="1" parent="1" source="RYjjqIkeE0hDO9lVGbM3-1" target="RYjjqIkeE0hDO9lVGbM3-2">
          <mxGeometry relative="1" as="geometry" />
        </mxCell>
        <mxCell id="RYjjqIkeE0hDO9lVGbM3-1" value="Başla" style="ellipse;whiteSpace=wrap;html=1;" vertex="1" parent="1">
          <mxGeometry x="354" y="10" width="120" height="60" as="geometry" />
        </mxCell>
        <mxCell id="RYjjqIkeE0hDO9lVGbM3-19" style="edgeStyle=orthogonalEdgeStyle;rounded=0;orthogonalLoop=1;jettySize=auto;html=1;exitX=0.5;exitY=1;exitDx=0;exitDy=0;entryX=0.5;entryY=0;entryDx=0;entryDy=0;" edge="1" parent="1" source="RYjjqIkeE0hDO9lVGbM3-2" target="RYjjqIkeE0hDO9lVGbM3-3">
          <mxGeometry relative="1" as="geometry" />
        </mxCell>
        <mxCell id="RYjjqIkeE0hDO9lVGbM3-2" value="let ciftsayi = []&lt;br&gt;let teksayi = []" style="rounded=0;whiteSpace=wrap;html=1;" vertex="1" parent="1">
          <mxGeometry x="354" y="90" width="120" height="60" as="geometry" />
        </mxCell>
        <mxCell id="RYjjqIkeE0hDO9lVGbM3-18" style="edgeStyle=orthogonalEdgeStyle;rounded=0;orthogonalLoop=1;jettySize=auto;html=1;exitX=0.5;exitY=1;exitDx=0;exitDy=0;entryX=0.5;entryY=0;entryDx=0;entryDy=0;" edge="1" parent="1" source="RYjjqIkeE0hDO9lVGbM3-3" target="RYjjqIkeE0hDO9lVGbM3-5">
          <mxGeometry relative="1" as="geometry" />
        </mxCell>
        <mxCell id="RYjjqIkeE0hDO9lVGbM3-3" value="i = 1; i &amp;lt;= 20; i++" style="shape=hexagon;perimeter=hexagonPerimeter2;whiteSpace=wrap;html=1;fixedSize=1;" vertex="1" parent="1">
          <mxGeometry x="354" y="180" width="120" height="80" as="geometry" />
        </mxCell>
        <mxCell id="RYjjqIkeE0hDO9lVGbM3-17" style="edgeStyle=orthogonalEdgeStyle;rounded=0;orthogonalLoop=1;jettySize=auto;html=1;exitX=0.5;exitY=1;exitDx=0;exitDy=0;entryX=0.5;entryY=0;entryDx=0;entryDy=0;" edge="1" parent="1" source="RYjjqIkeE0hDO9lVGbM3-5" target="RYjjqIkeE0hDO9lVGbM3-6">
          <mxGeometry relative="1" as="geometry" />
        </mxCell>
        <mxCell id="RYjjqIkeE0hDO9lVGbM3-5" value="let sayi" style="shape=parallelogram;perimeter=parallelogramPerimeter;whiteSpace=wrap;html=1;fixedSize=1;" vertex="1" parent="1">
          <mxGeometry x="354" y="280" width="120" height="60" as="geometry" />
        </mxCell>
        <mxCell id="RYjjqIkeE0hDO9lVGbM3-8" style="edgeStyle=orthogonalEdgeStyle;rounded=0;orthogonalLoop=1;jettySize=auto;html=1;exitX=1;exitY=0.5;exitDx=0;exitDy=0;entryX=0;entryY=0.5;entryDx=0;entryDy=0;" edge="1" parent="1" source="RYjjqIkeE0hDO9lVGbM3-6" target="RYjjqIkeE0hDO9lVGbM3-7">
          <mxGeometry relative="1" as="geometry" />
        </mxCell>
        <mxCell id="RYjjqIkeE0hDO9lVGbM3-9" value="true" style="edgeLabel;html=1;align=center;verticalAlign=middle;resizable=0;points=[];" vertex="1" connectable="0" parent="RYjjqIkeE0hDO9lVGbM3-8">
          <mxGeometry x="-0.1579" y="1" relative="1" as="geometry">
            <mxPoint as="offset" />
          </mxGeometry>
        </mxCell>
        <mxCell id="RYjjqIkeE0hDO9lVGbM3-11" style="edgeStyle=orthogonalEdgeStyle;rounded=0;orthogonalLoop=1;jettySize=auto;html=1;exitX=0.5;exitY=1;exitDx=0;exitDy=0;entryX=0.5;entryY=0;entryDx=0;entryDy=0;" edge="1" parent="1" source="RYjjqIkeE0hDO9lVGbM3-6" target="RYjjqIkeE0hDO9lVGbM3-10">
          <mxGeometry relative="1" as="geometry" />
        </mxCell>
        <mxCell id="RYjjqIkeE0hDO9lVGbM3-12" value="false" style="edgeLabel;html=1;align=center;verticalAlign=middle;resizable=0;points=[];" vertex="1" connectable="0" parent="RYjjqIkeE0hDO9lVGbM3-11">
          <mxGeometry x="-0.2" y="-1" relative="1" as="geometry">
            <mxPoint as="offset" />
          </mxGeometry>
        </mxCell>
        <mxCell id="RYjjqIkeE0hDO9lVGbM3-6" value="sayi % 2 == 0" style="rhombus;whiteSpace=wrap;html=1;" vertex="1" parent="1">
          <mxGeometry x="366" y="360" width="96" height="100" as="geometry" />
        </mxCell>
        <mxCell id="RYjjqIkeE0hDO9lVGbM3-16" style="edgeStyle=orthogonalEdgeStyle;rounded=0;orthogonalLoop=1;jettySize=auto;html=1;exitX=0.5;exitY=0;exitDx=0;exitDy=0;entryX=1;entryY=0.5;entryDx=0;entryDy=0;" edge="1" parent="1" source="RYjjqIkeE0hDO9lVGbM3-7" target="RYjjqIkeE0hDO9lVGbM3-3">
          <mxGeometry relative="1" as="geometry" />
        </mxCell>
        <mxCell id="RYjjqIkeE0hDO9lVGbM3-7" value="ciftsayi.push(sayi)" style="rounded=0;whiteSpace=wrap;html=1;" vertex="1" parent="1">
          <mxGeometry x="500" y="380" width="120" height="60" as="geometry" />
        </mxCell>
        <mxCell id="RYjjqIkeE0hDO9lVGbM3-13" style="edgeStyle=orthogonalEdgeStyle;rounded=0;orthogonalLoop=1;jettySize=auto;html=1;exitX=1;exitY=0.5;exitDx=0;exitDy=0;entryX=1;entryY=0.5;entryDx=0;entryDy=0;" edge="1" parent="1" source="RYjjqIkeE0hDO9lVGbM3-10" target="RYjjqIkeE0hDO9lVGbM3-3">
          <mxGeometry relative="1" as="geometry">
            <Array as="points">
              <mxPoint x="650" y="530" />
              <mxPoint x="650" y="220" />
            </Array>
          </mxGeometry>
        </mxCell>
        <mxCell id="RYjjqIkeE0hDO9lVGbM3-10" value="teksayi.push(sayi)" style="rounded=0;whiteSpace=wrap;html=1;" vertex="1" parent="1">
          <mxGeometry x="354" y="500" width="120" height="60" as="geometry" />
        </mxCell>
        <mxCell id="RYjjqIkeE0hDO9lVGbM3-24" style="edgeStyle=orthogonalEdgeStyle;rounded=0;orthogonalLoop=1;jettySize=auto;html=1;entryX=0.5;entryY=0;entryDx=0;entryDy=0;" edge="1" parent="1" source="RYjjqIkeE0hDO9lVGbM3-21" target="RYjjqIkeE0hDO9lVGbM3-22">
          <mxGeometry relative="1" as="geometry" />
        </mxCell>
        <mxCell id="RYjjqIkeE0hDO9lVGbM3-21" value="teksayi" style="shape=document;whiteSpace=wrap;html=1;boundedLbl=1;" vertex="1" parent="1">
          <mxGeometry x="170" y="190" width="120" height="80" as="geometry" />
        </mxCell>
        <mxCell id="RYjjqIkeE0hDO9lVGbM3-26" style="edgeStyle=orthogonalEdgeStyle;rounded=0;orthogonalLoop=1;jettySize=auto;html=1;entryX=0.5;entryY=0;entryDx=0;entryDy=0;" edge="1" parent="1" source="RYjjqIkeE0hDO9lVGbM3-22" target="RYjjqIkeE0hDO9lVGbM3-25">
          <mxGeometry relative="1" as="geometry" />
        </mxCell>
        <mxCell id="RYjjqIkeE0hDO9lVGbM3-22" value="ciftsayi" style="shape=document;whiteSpace=wrap;html=1;boundedLbl=1;" vertex="1" parent="1">
          <mxGeometry x="170" y="300" width="120" height="80" as="geometry" />
        </mxCell>
        <mxCell id="RYjjqIkeE0hDO9lVGbM3-23" style="edgeStyle=orthogonalEdgeStyle;rounded=0;orthogonalLoop=1;jettySize=auto;html=1;exitX=0;exitY=0.5;exitDx=0;exitDy=0;entryX=1;entryY=0.375;entryDx=0;entryDy=0;entryPerimeter=0;" edge="1" parent="1" source="RYjjqIkeE0hDO9lVGbM3-3" target="RYjjqIkeE0hDO9lVGbM3-21">
          <mxGeometry relative="1" as="geometry" />
        </mxCell>
        <mxCell id="RYjjqIkeE0hDO9lVGbM3-25" value="Bitiş" style="ellipse;whiteSpace=wrap;html=1;" vertex="1" parent="1">
          <mxGeometry x="170" y="420" width="120" height="60" as="geometry" />
        </mxCell>
      </root>
    </mxGraphModel>
  </diagram>
</mxfile>
